<?xml version="1.0" encoding="utf-8"?>
<!-- Generator: Adobe Illustrator 16.0.4, SVG Export Plug-In . SVG Version: 6.00 Build 0)  -->
<!DOCTYPE svg PUBLIC "-//W3C//DTD SVG 1.1//EN" "http://www.w3.org/Graphics/SVG/1.1/DTD/svg11.dtd">
<svg version="1.1" xmlns="http://www.w3.org/2000/svg" xmlns:xlink="http://www.w3.org/1999/xlink" x="0px" y="0px"
	 width="324.822px" height="324.822px" viewBox="0 0 324.822 324.822" enable-background="new 0 0 324.822 324.822"
	 xml:space="preserve">
<g id="Layer_1">
	<circle fill="#25D4D8" cx="162.411" cy="162.411" r="162.411"/>
</g>
<g id="Layer_2">
	<g>
		<path fill="#FFFFFF" d="M253.411,90.575c0-8.375-6.789-15.164-15.164-15.164H86.575c-8.375,0-15.164,6.789-15.164,15.164v11.673
			c0,8.375,6.789,15.164,15.164,15.164h151.672c8.375,0,15.164-6.789,15.164-15.164V90.575z"/>
	</g>
	<g>
		<path fill="#FFFFFF" d="M200.411,154.141c0-7.031-5.699-12.73-12.73-12.73H84.141c-7.031,0-12.73,5.699-12.73,12.73v16.54
			c0,7.031,5.699,12.73,12.73,12.73h103.54c7.031,0,12.73-5.699,12.73-12.73V154.141z"/>
	</g>
	<g>
		<path fill="#FFFFFF" d="M142.411,220.695c0-7.336-5.947-13.284-13.284-13.284H84.695c-7.336,0-13.284,5.947-13.284,13.284v15.433
			c0,7.336,5.947,13.284,13.284,13.284h44.433c7.336,0,13.284-5.947,13.284-13.284V220.695z"/>
	</g>
</g>
</svg>
